# xmcd
#
# Track frame offsets: 
#        150
#        22685
#        42406
#        68420
#        87525
#        105792
#        125105
#        144961
#        167776
#        190718
#        210718
#        228005
#        245114
#        281911
#        303752
#        323447
#        338842
#
# Disc length: 4773 seconds
#
# Revision: 1
# Processed by: cddbd v1.5.2PL0 Copyright (c) Steve Scherf et al.
# Submitted via: ExactAudioCopy v1.3
#
DISCID=df12a311
DTITLE=Various Artist - Akella Presents - vol.163 - Various Styles Of
DTITLE=Blues  CD2
DYEAR=2018
DGENRE=Blues
TTITLE0=Kris Pohlmann - Volatile Skies
TTITLE1=Jay O'Rourke - House Full Of Strangers
TTITLE2=Sakis Dovolis Trio - Show Me Your Love
TTITLE3=The Theory - Before I Begin
TTITLE4=John Hiatt - Nothing In My Heart
TTITLE5=Kat Danser - Kansas City Blues
TTITLE6=The Boonx - Doin' The Best
TTITLE7=Get The Cat - Prove Me Wrong
TTITLE8=Bobby Rush and Jim Allchin - Two Bad Dreams
TTITLE9=Bill Deraime - Chaque Matin
TTITLE10=Junkyardmen - Keep on Workin'
TTITLE11=Robin Barrett and Coyote Kings - Party
TTITLE12=Kirk Fletcher - The Answer
TTITLE13=John Campbelljohn - Whole Lotta Love
TTITLE14=The Blue Chevys - Sit Down And Talk
TTITLE15=Layla Zoe - Rainbow Pacmen And Unicorns
TTITLE16=Sean Chambers - Riviera Blue
EXTD=
EXTT0=
EXTT1=
EXTT2=
EXTT3=
EXTT4=
EXTT5=
EXTT6=
EXTT7=
EXTT8=
EXTT9=
EXTT10=
EXTT11=
EXTT12=
EXTT13=
EXTT14=
EXTT15=
EXTT16=
PLAYORDER=
